FFmpeg version SVN-r25716, Copyright (c) 2000-2010 the FFmpeg developers  built on Nov 10 2010 12:23:18 with gcc 4.1.2 20080704 (Red Hat 4.1.2-48)  configuration: --enable-libmp3lame --enable-shared --disable-mmx --arch=x86_64  libavutil     50.33. 0 / 50.33. 0  libavcore      0.12. 1 /  0.12. 1  libavcodec    52.94. 4 / 52.94. 4  libavformat   52.84. 0 / 52.84. 0  libavdevice   52. 2. 2 / 52. 2. 2  libavfilter    1.59. 0 /  1.59. 0  libswscale     0.12. 0 /  0.12. 0Input #0, avi, from '/RAID10/data/converted_video_files/47584.avi':  Duration: 00:00:01.60, start: 0.000000, bitrate: 31564 kb/s    Stream #0.0: Video: msvideo1, rgb555le, 1024x1024, 30 tbr, 30 tbn, 30 tbc[buffer @ 0xc007ba0] w:1024 h:1024 pixfmt:rgb555le[ffsink @ 0xc041f40] auto-inserting filter 'auto-inserted scaler 0' between the filter 'src' and the filter 'out'[scale @ 0xc042240] w:1024 h:1024 fmt:rgb555le -> w:1024 h:1024 fmt:yuv420p flags:0x4Output #0, flv, to '/RAID10/data/converted_video_files/47584.flv':  Metadata:    encoder         : Lavf52.84.0    Stream #0.0: Video: flv, yuv420p, 1024x1024, q=2-31, 600 kb/s, 1k tbn, 24 tbcStream mapping:  Stream #0.0 -> #0.0Press [q] to stop encodingframe=    7 fps=  0 q=6.3 size=     544kB time=0.29 bitrate=15252.9kbits/s dup=0 drop=1    frame=   12 fps= 10 q=20.1 size=     609kB time=0.50 bitrate=9976.4kbits/s dup=0 drop=3    frame=   20 fps= 11 q=31.0 size=     653kB time=0.83 bitrate=6419.3kbits/s dup=0 drop=5    frame=   28 fps= 12 q=31.0 size=     668kB time=1.17 bitrate=4685.9kbits/s dup=0 drop=6    frame=   37 fps= 13 q=31.0 size=     711kB time=1.54 bitrate=3779.0kbits/s dup=0 drop=9    frame=   39 fps= 13 q=31.0 Lsize=     714kB time=1.62 bitrate=3601.1kbits/s dup=0 drop=9    video:714kB audio:0kB global headers:0kB muxing overhead 0.114145%